<?xml version="1.0" encoding="UTF-8" standalone="no"?>
<!-- Generator: Adobe Illustrator 12.0.0, SVG Export Plug-In . SVG Version: 6.00 Build 51448)  -->
<svg
   xmlns:dc="http://purl.org/dc/elements/1.1/"
   xmlns:cc="http://web.resource.org/cc/"
   xmlns:rdf="http://www.w3.org/1999/02/22-rdf-syntax-ns#"
   xmlns:svg="http://www.w3.org/2000/svg"
   xmlns="http://www.w3.org/2000/svg"
   xmlns:sodipodi="http://sodipodi.sourceforge.net/DTD/sodipodi-0.dtd"
   xmlns:inkscape="http://www.inkscape.org/namespaces/inkscape"
   version="1.0"
   id="Layer_1"
   width="187.1944"
   height="85.565422"
   viewBox="0 0 192.756 192.756"
   overflow="visible"
   enable-background="new 0 0 192.756 192.756"
   xml:space="preserve"
   sodipodi:version="0.32"
   inkscape:version="0.45.1"
   sodipodi:docname="Medecins_Sans_Frontieres[1].svg"
   inkscape:output_extension="org.inkscape.output.svg.inkscape"
   sodipodi:docbase="C:\Users\Virgile"><metadata
   id="metadata16"><rdf:RDF><cc:Work
       rdf:about=""><dc:format>image/svg+xml</dc:format><dc:type
         rdf:resource="http://purl.org/dc/dcmitype/StillImage" /></cc:Work></rdf:RDF></metadata><defs
   id="defs14">
	
	
	
	
</defs><sodipodi:namedview
   inkscape:window-height="748"
   inkscape:window-width="1024"
   inkscape:pageshadow="2"
   inkscape:pageopacity="0.0"
   guidetolerance="10.0"
   gridtolerance="10.0"
   objecttolerance="10.0"
   borderopacity="1.0"
   bordercolor="#666666"
   pagecolor="#ffffff"
   id="base"
   inkscape:zoom="1.9558406"
   inkscape:cx="96.377998"
   inkscape:cy="96.377998"
   inkscape:window-x="1392"
   inkscape:window-y="-8"
   inkscape:current-layer="Layer_1" />

<g
   id="g2172"
   transform="matrix(2.2527324,0,0,2.2527324,-120.35162,-120.5349)"><path
     clip-rule="evenodd"
     d="M 68.998,122.234 C 69.007,122.211 68.83,121.871 68.773,121.73 C 68.708,121.57 68.713,121.164 68.734,121.072 C 68.758,120.963 68.716,120.959 68.673,120.832 C 68.658,120.791 68.705,120.519 68.695,120.387 C 68.691,120.326 68.467,119.883 68.45,119.793 C 68.433,119.707 68.464,119.496 68.45,119.348 C 68.44,119.268 68.424,119.2 68.394,119.125 L 67.458,116.295 L 67.066,115.029 C 67.033,114.925 66.424,113.931 66.388,113.822 C 65.721,111.799 63.632,108.429 61.497,107.084 C 61.427,107.039 60.847,106.336 60.754,106.266 C 60.632,106.176 60.27,106.012 60.215,105.959 C 60.052,105.805 59.931,105.516 59.676,105.58 C 59.621,105.594 59.579,105.623 59.546,105.668 C 59.492,105.738 58.862,107.314 58.755,107.506 C 58.641,107.711 58.491,107.918 58.432,108.053 C 58.343,108.301 58.287,108.518 58.243,108.778 C 57.625,111.264 52.973,119.216 51.792,121.442 L 47.379,129.753 C 46.568,131.042 46.653,129.714 46.365,129.585 C 45.971,129.407 46.056,129.712 45.83,129.874 C 45.551,130.075 44.864,130.208 44.582,130.198 C 44.54,130.196 44.076,130.45 43.951,130.487 C 43.805,130.53 43.677,130.501 43.668,130.342 C 43.664,130.274 43.722,130.082 43.735,129.975 C 43.746,129.881 43.712,129.819 43.646,129.752 C 43.551,129.656 43.515,129.717 43.333,129.807 C 43.162,129.893 43.143,129.819 43.021,129.651 C 42.889,129.469 41.421,129.135 41.26,129.206 C 41.049,129.3 40.672,129.653 40.513,129.44 C 40.451,129.356 40.475,129.147 40.447,128.995 C 40.426,128.864 40.326,128.766 40.195,128.749 C 39.944,128.737 39.737,128.856 39.689,128.749 C 39.609,128.577 39.689,128.479 39.588,128.405 C 39.541,128.368 39.212,128.284 39.165,128.249 C 39.036,128.153 39.038,128.026 38.897,127.958 C 38.867,127.946 38.84,127.938 38.808,127.937 C 38.49,127.91 38.325,128.003 38.164,127.912 C 37.979,127.807 37.866,127.562 37.794,127.281 C 37.738,127.06 37.689,126.506 37.661,126.457 C 37.641,126.422 37.581,126.396 37.538,126.389 C 37.434,126.369 37.22,126.467 37.114,126.512 C 36.929,126.59 31.399,129.69 31.231,129.809 C 30.642,130.229 30.431,130.444 30.362,131.112 C 30.169,132.973 31.095,138.409 33.66,139.122 C 34.003,139.218 34.213,139.126 34.529,138.989 L 59.933,126.557 C 60.794,126.127 68.204,122.637 68.401,122.569 C 68.504,122.533 68.985,122.262 68.998,122.234 L 68.998,122.234 z M 24.17,116.629 C 24.179,116.629 24.171,116.649 24.161,116.664 C 24.142,116.691 24.108,116.703 24.077,116.713 C 23.977,116.74 9.683,124.318 8.509,124.912 L 3.78,127.578 C 3.221,127.902 2.89,128.43 2.844,129.074 C 2.718,131.021 3.878,133.715 5.106,135.365 C 5.442,135.816 6.208,136.808 6.856,136.98 C 7.191,137.068 7.455,136.98 7.747,136.89 C 7.896,136.845 22.47,130.017 24.316,129.126 C 29.082,127.028 33.113,125.276 37.899,123.224 C 38.151,123.119 38.221,123.076 38.278,122.855 C 38.348,122.584 38.432,122.009 38.49,121.841 C 38.536,121.704 38.719,121.382 38.846,121.128 C 38.948,120.925 39.311,119.864 39.558,119.28 C 39.643,119.079 39.733,118.897 39.804,118.7 C 39.918,118.382 40.025,117.843 40.127,117.563 L 45.32,104.61 L 47.838,98.495 C 48.217,97.293 48.172,96.966 48.852,95.821 C 48.958,95.643 49.771,93.079 49.799,92.88 C 49.85,92.522 50.187,92.096 49.837,92.012 C 49.678,91.973 49.352,92.063 49.176,92.123 C 48.706,92.297 48.316,92.459 47.861,92.669 C 34.11,99.054 22.673,104.821 9.364,112.083 C 8.442,112.604 7.674,113.06 6.776,113.62 C 6.153,113.975 5.812,114.608 5.855,115.323 C 6.027,117.637 6.585,119.569 7.671,121.618 C 8.058,122.302 8.558,122.235 9.353,122.03 C 9.527,121.985 13.174,120.54 14.412,120.026 L 23.961,116.672 C 24.031,116.652 24.094,116.639 24.17,116.629 L 24.17,116.629 z M 74.109,100.611 C 74.066,100.785 74.54,101.246 74.649,101.353 C 74.977,101.671 75.491,102.121 75.631,102.285 C 77.003,103.933 77.923,105.529 78.663,107.541 C 78.671,107.562 93.831,107.297 93.928,107.273 C 101.331,104.746 107.67,102.873 115.258,100.968 C 115.589,100.847 115.812,100.773 115.926,100.499 C 116.996,97.958 115.847,92.933 114.499,90.742 C 114.109,90.108 113.664,90.114 112.884,90.297 C 111.404,90.644 102.147,92.624 99.803,93.16 C 91.47,95.139 84.5,97.089 76.348,99.721 C 75.782,99.9 74.158,100.418 74.109,100.611 L 74.109,100.611 z M 61.006,88.018 C 60.944,88.181 61.079,88.32 61.162,88.393 C 61.288,88.503 63.406,89.851 63.602,90.008 C 63.746,90.122 63.859,90.228 63.981,90.365 C 64.606,91.064 64.615,91.274 65.173,91.679 C 65.777,92.117 65.51,91.924 66.075,92.544 C 66.256,92.743 67.121,93.486 67.278,93.662 C 67.503,93.914 67.52,93.961 67.769,94.108 C 67.849,94.155 71.648,97.919 71.713,98.007 C 72.018,98.419 72.396,99.191 72.847,99.142 C 72.912,99.136 82.401,94.52 82.922,94.242 C 85.321,93.096 87.356,92.147 89.775,91.045 C 93.637,89.338 100.928,86.051 101.674,85.743 C 102.36,85.46 102.72,85.256 102.677,84.578 C 102.554,82.634 100.251,76.858 98.331,75.707 C 97.861,75.424 97.36,75.615 96.771,75.785 C 91.799,77.219 61.451,86.832 61.006,88.018 L 61.006,88.018 z M 91.959,71.721 L 92.338,70.644 C 92.35,70.615 92.358,70.589 92.362,70.559 C 92.389,70.321 92.252,70.33 92.148,70.18 C 92.064,70.058 92.049,69.551 92.037,69.512 C 92.017,69.451 91.99,69.403 91.948,69.356 C 91.758,69.13 91.468,68.924 91.391,68.754 C 91.36,68.687 91.287,67.683 91.257,67.618 C 91.225,67.549 91.098,67.413 91.018,67.302 C 90.997,67.274 90.982,67.249 90.968,67.217 C 90.927,67.121 90.894,66.853 90.869,66.821 C 90.838,66.781 90.726,66.74 90.701,66.704 C 90.683,66.679 90.669,66.582 90.674,66.513 C 90.692,66.269 90.733,66.152 90.59,66.013 C 90.362,65.794 90.248,65.831 90.167,65.568 C 90.012,65.066 89.179,64.813 88.595,64.9 C 88.488,64.916 87.867,65.185 87.637,65.245 C 87.409,65.284 87.213,65.301 86.982,65.301 C 86.359,65.28 86.355,65.275 85.631,65.579 C 85.462,65.65 80.26,67.128 79.436,67.339 C 57.68,73.604 39.895,81.019 20.133,92.063 C 19.817,92.256 19.214,92.613 18.988,92.903 C 18.762,93.195 18.716,93.417 18.509,93.56 C 18.435,93.611 18.182,93.699 17.996,93.783 C 17.922,93.816 17.331,94.295 17.294,94.351 C 17.246,94.425 17.169,94.626 17.272,94.774 C 17.298,94.812 17.35,94.837 17.395,94.852 C 17.48,94.881 17.58,94.887 17.662,94.919 C 17.757,94.955 17.849,95.029 17.93,95.053 C 18.168,95.121 18.206,95.046 18.32,95.198 C 18.395,95.298 18.559,95.773 18.688,95.855 C 18.815,95.937 18.995,95.933 19.056,96.022 C 19.065,96.037 19.072,96.05 19.078,96.066 C 19.114,96.151 19.284,97.305 19.284,97.46 C 19.284,97.565 19.221,98.192 19.38,98.306 C 19.515,98.402 19.852,98.324 20.004,98.283 C 20.643,98.111 20.61,97.853 21.385,97.326 L 23.302,96.245 C 23.417,96.169 23.686,96.072 23.725,96.034 C 23.769,95.983 23.802,95.936 23.837,95.878 C 23.962,95.7 24.137,95.652 24.416,95.566 C 24.668,95.489 24.679,95.561 24.951,95.767 C 25.511,96.191 25.969,96.492 26.622,96.012 C 26.914,95.827 27.169,95.684 27.48,95.533 C 47.889,85.851 65.994,79.462 87.96,74.191 C 88.36,74.116 91.68,73.309 91.76,73.267 C 92.238,73.014 92.114,72.477 91.955,71.85 C 91.939,71.791 91.94,71.778 91.959,71.721 L 91.959,71.721 z M 49.062,63.942 C 49.062,65.796 49.843,69.169 51.625,70.38 C 51.827,70.517 52.057,70.588 52.171,70.758 C 52.338,71.008 52.272,71.084 52.494,71.148 C 52.837,71.246 52.878,71.143 53.506,71.159 C 53.601,71.161 54.036,71.231 54.166,71.203 C 54.379,71.158 54.505,71.035 54.678,71.147 C 54.785,71.216 54.754,71.258 54.823,71.381 C 54.935,71.582 55.527,71.552 55.69,71.537 C 56.305,71.478 56.832,71.32 57.13,70.824 C 57.218,70.678 57.587,70.071 58.023,69.882 C 58.254,69.782 58.298,69.823 58.397,69.739 C 58.598,69.568 58.823,69.101 58.898,68.995 C 58.963,68.903 59.453,68.471 59.748,68.196 C 61.209,66.833 63.171,62.606 62.724,60.238 C 62.628,59.731 62.259,58.056 61.977,57.636 C 61.857,57.457 61.644,57.277 61.576,57.079 C 61.556,57.021 61.549,56.961 61.531,56.901 C 61.259,55.935 59.539,53.812 58.565,53.804 C 58.465,53.803 58.377,53.819 58.289,53.804 C 58.206,53.791 57.88,53.625 57.777,53.604 C 57.675,53.583 57.225,53.605 57.131,53.66 C 56.761,53.862 56.426,53.993 56.017,54.094 C 55.829,54.141 55.757,54.122 55.621,54.224 C 55.495,54.318 55.377,54.47 55.261,54.554 C 55.195,54.601 54.878,54.71 54.68,54.797 C 52.927,55.566 50.929,57.912 50.279,59.62 C 50.052,60.21 49.062,63.372 49.062,63.942 L 49.062,63.942 z "
     id="path7"
     style="fill:#ee342a;fill-rule:evenodd" /><path
     stroke-miterlimit="2.6131"
     d="M 84.396,120.721 L 88.692,112.489 C 88.544,113.151 88.399,113.745 88.267,114.282 L 88.024,115.268 L 86.715,120.11 C 86.564,120.667 86.366,121.348 86.078,122.155 L 88.158,122.155 C 88.313,121.403 88.457,120.757 88.58,120.255 C 88.651,119.968 88.727,119.716 88.775,119.521 L 90.635,112.74 C 90.764,112.275 90.978,111.467 91.328,110.283 L 88.051,110.283 C 87.761,110.912 87.504,111.414 87.302,111.808 L 83.152,119.628 L 83.614,111.466 C 83.626,111.359 83.648,110.964 83.71,110.282 L 80.283,110.282 C 78.792,115.501 77.519,119.466 76.514,122.155 L 78.564,122.155 C 78.953,120.757 79.257,119.698 79.478,118.981 L 81.632,112.219 L 81.166,120.883 C 81.148,121.258 81.103,121.69 81.048,122.154 L 83.682,122.154 C 83.912,121.652 84.146,121.188 84.396,120.721 L 84.396,120.721 z M 89.796,122.154 L 97.158,122.154 L 97.81,119.804 C 96.686,119.931 95.416,119.984 93.995,119.984 C 93.471,119.984 93.012,119.966 92.597,119.949 L 92.659,119.697 C 92.787,119.177 92.936,118.693 93.08,118.226 L 93.459,116.99 L 96.736,116.99 C 97.2,116.99 97.679,116.99 98.145,117.043 L 98.755,114.801 C 98.198,114.873 97.645,114.873 97.076,114.873 L 94.054,114.873 L 94.381,113.725 C 94.552,113.151 94.692,112.704 94.846,112.381 L 98.228,112.381 C 98.453,112.381 99.046,112.399 99.977,112.451 L 100.584,110.281 L 93.22,110.281 C 91.936,115.268 90.783,119.232 89.796,122.154 L 89.796,122.154 z M 98.459,122.154 L 103.009,122.154 C 106.227,122.154 108.805,119.697 109.775,115.752 C 110.295,113.635 110.088,112.039 109.269,111.107 C 108.58,110.318 107.631,110.281 106.374,110.281 L 101.884,110.281 C 100.556,115.447 99.388,119.41 98.459,122.154 L 98.459,122.154 z M 101.365,120.074 L 101.532,119.392 C 101.686,118.765 101.846,118.173 102.011,117.564 L 103.483,112.363 L 105.308,112.363 C 106.311,112.363 106.999,112.363 107.38,112.883 C 107.793,113.457 107.846,114.461 107.502,115.86 C 107.118,117.421 106.379,118.604 105.356,119.358 C 104.391,120.057 103.534,120.075 102.425,120.075 L 101.365,120.075 L 101.365,120.074 z M 109.343,122.154 L 116.706,122.154 L 117.357,119.804 C 116.234,119.931 114.963,119.984 113.543,119.984 C 113.019,119.984 112.56,119.966 112.145,119.949 L 112.207,119.697 C 112.335,119.177 112.484,118.693 112.628,118.226 L 113.007,116.99 L 116.284,116.99 C 116.748,116.99 117.227,116.99 117.692,117.043 L 118.302,114.801 C 117.746,114.873 117.193,114.873 116.623,114.873 L 113.601,114.873 L 113.928,113.725 C 114.099,113.151 114.239,112.704 114.393,112.381 L 117.775,112.381 C 118,112.381 118.593,112.399 119.523,112.451 L 120.13,110.281 L 112.768,110.281 C 111.483,115.268 110.33,119.232 109.343,122.154 L 109.343,122.154 z M 128.823,112.541 L 129.288,110.281 C 128.33,110.101 127.544,110.013 126.93,110.013 C 123.009,110.013 120.366,112.308 119.339,116.488 C 118.393,120.343 119.752,122.424 123.359,122.424 C 124.227,122.424 125.126,122.299 126.044,122.154 L 126.872,119.697 C 125.903,119.984 125.03,120.129 124.252,120.129 C 121.843,120.129 120.891,118.766 121.521,116.201 C 122.173,113.545 123.883,112.004 126.188,112.004 C 127.234,112.004 128.109,112.219 128.823,112.541 L 128.823,112.541 z M 133.296,110.281 L 130.976,110.281 C 129.639,115.482 128.471,119.447 127.537,122.154 L 129.887,122.154 C 130.04,121.474 130.185,120.883 130.3,120.416 C 130.388,120.057 130.458,119.77 130.534,119.52 L 132.494,112.758 C 132.717,111.969 132.994,111.143 133.296,110.281 L 133.296,110.281 z M 137.616,122.154 L 141.072,122.154 C 141.191,121.67 141.287,121.222 141.379,120.845 C 141.516,120.288 141.637,119.859 141.735,119.519 L 143.679,112.757 C 143.903,111.968 144.18,111.142 144.482,110.28 L 142.431,110.28 C 142.374,110.514 142.331,110.747 142.279,110.962 C 142.094,111.716 141.897,112.398 141.704,113.062 L 139.673,120.236 L 138.437,110.281 L 135.144,110.281 C 133.618,115.769 132.495,119.734 131.645,122.154 L 133.696,122.154 C 133.979,121.06 134.298,119.824 134.693,118.461 L 136.506,112.111 L 137.319,118.855 C 137.451,120.021 137.591,121.098 137.616,122.154 L 137.616,122.154 z M 145.789,116.004 L 147.456,118.174 C 147.737,118.551 147.835,118.945 147.756,119.268 C 147.58,119.985 146.882,120.452 145.864,120.452 C 145.161,120.452 144.233,120.147 143.183,119.483 L 142.74,121.78 C 143.235,122.137 144.227,122.425 145.529,122.425 C 147.758,122.425 149.378,121.134 149.832,119.286 C 150.109,118.157 149.816,117.278 149.046,116.272 L 147.226,113.87 C 147.07,113.655 147.032,113.386 147.102,113.099 C 147.282,112.365 147.965,111.898 149.058,111.898 C 149.686,111.898 150.322,112.113 151.061,112.453 L 151.461,110.338 C 150.622,110.158 149.825,110.051 149.047,110.051 C 146.862,110.051 145.476,111.127 145.026,112.955 C 144.727,114.174 145.008,114.98 145.789,116.004 L 145.789,116.004 z M 66.045,131.094 L 67.709,133.244 C 67.99,133.619 68.087,134.01 68.008,134.33 C 67.832,135.041 67.135,135.504 66.12,135.504 C 65.418,135.504 64.492,135.201 63.445,134.543 L 63.002,136.818 C 63.497,137.173 64.487,137.459 65.786,137.459 C 68.011,137.459 69.627,136.18 70.08,134.348 C 70.357,133.227 70.064,132.356 69.295,131.36 L 67.48,128.977 C 67.324,128.764 67.285,128.497 67.355,128.213 C 67.535,127.483 68.217,127.02 69.307,127.02 C 69.934,127.02 70.569,127.235 71.307,127.573 L 71.706,125.473 C 70.869,125.295 70.073,125.19 69.297,125.19 C 67.116,125.19 65.733,126.256 65.284,128.071 C 64.986,129.279 65.266,130.08 66.045,131.094 L 66.045,131.094 z M 69.031,137.193 L 71.302,137.193 C 71.642,136.48 71.951,135.894 72.264,135.414 L 74.081,132.533 L 77.516,132.533 L 77.708,135.804 C 77.726,136.036 77.686,136.499 77.619,137.193 L 80.009,137.193 L 79.469,127.412 C 79.433,126.771 79.436,126.096 79.453,125.42 L 76.466,125.42 C 76.158,126.061 75.89,126.541 75.676,126.861 L 69.031,137.193 L 69.031,137.193 z M 77.371,127.02 L 77.539,130.631 L 75.164,130.631 L 77.371,127.02 L 77.371,127.02 z M 86.259,137.193 L 89.709,137.193 C 89.828,136.713 89.923,136.267 90.015,135.894 C 90.152,135.343 90.272,134.915 90.37,134.578 L 92.311,127.875 C 92.534,127.092 92.811,126.273 93.112,125.42 L 91.066,125.42 C 91.009,125.65 90.967,125.883 90.914,126.096 C 90.729,126.844 90.532,127.518 90.34,128.176 L 88.313,135.289 L 87.078,125.42 L 83.792,125.42 C 82.268,130.861 81.147,134.791 80.3,137.193 L 82.346,137.193 C 82.629,136.107 82.947,134.88 83.341,133.529 L 85.151,127.234 L 85.963,133.92 C 86.095,135.076 86.234,136.143 86.259,137.193 L 86.259,137.193 z M 94.416,131.094 L 96.08,133.244 C 96.361,133.619 96.458,134.01 96.379,134.33 C 96.203,135.041 95.506,135.504 94.491,135.504 C 93.789,135.504 92.864,135.201 91.816,134.543 L 91.373,136.818 C 91.868,137.173 92.857,137.459 94.157,137.459 C 96.382,137.459 97.998,136.18 98.45,134.348 C 98.727,133.227 98.434,132.356 97.665,131.36 L 95.85,128.977 C 95.694,128.764 95.655,128.497 95.725,128.213 C 95.905,127.483 96.587,127.02 97.677,127.02 C 98.304,127.02 98.939,127.235 99.676,127.573 L 100.075,125.473 C 99.238,125.295 98.443,125.19 97.666,125.19 C 95.486,125.19 94.102,126.256 93.653,128.071 C 93.356,129.279 93.636,130.08 94.416,131.094 L 94.416,131.094 z M 103.08,137.193 L 105.336,137.193 C 105.431,136.748 105.536,136.32 105.642,135.894 C 105.871,134.968 106.112,134.115 106.359,133.298 L 106.737,132.069 L 109.425,132.069 C 109.888,132.069 110.351,132.069 110.816,132.124 L 111.44,129.899 C 110.963,129.954 110.407,129.971 109.764,129.971 L 107.33,129.971 L 107.656,128.832 C 107.826,128.264 107.966,127.818 108.12,127.498 L 110.898,127.498 C 111.122,127.498 111.714,127.516 112.642,127.57 L 113.264,125.418 L 106.497,125.418 C 105.217,130.363 104.065,134.295 103.08,137.193 L 103.08,137.193 z M 110.979,137.193 L 113.294,137.193 C 113.862,135.076 114.172,133.884 114.257,133.599 L 115.536,129.029 C 115.7,128.425 115.896,127.875 116.113,127.359 C 116.585,127.322 117.022,127.304 117.395,127.304 C 118.785,127.304 119.329,127.517 119.039,128.691 C 118.74,129.9 117.855,130.523 116.376,130.523 C 116.093,130.523 115.813,130.505 115.527,130.453 L 116.266,137.193 L 118.611,137.193 C 118.319,135.414 118.092,133.672 117.902,131.964 C 119.618,131.306 120.695,130.15 121.09,128.55 C 121.438,127.144 121.206,126.148 120.565,125.722 C 120.142,125.437 119.549,125.419 118.802,125.419 L 114.396,125.419 C 113.072,130.541 111.906,134.473 110.979,137.193 L 110.979,137.193 z M 125.279,137.441 C 128.774,137.441 131.497,135.005 132.468,131.074 C 133.4,127.304 131.941,125.172 128.312,125.172 C 124.817,125.172 122.094,127.608 121.118,131.555 C 120.191,135.309 121.665,137.441 125.279,137.441 L 125.279,137.441 z M 123.363,131.537 C 124.049,128.764 125.633,127.252 127.813,127.252 C 129.993,127.252 130.824,128.604 130.209,131.094 C 129.519,133.885 127.925,135.379 125.685,135.379 C 123.623,135.379 122.761,133.975 123.363,131.537 L 123.363,131.537 z M 138.068,137.193 L 141.518,137.193 C 141.636,136.713 141.731,136.267 141.824,135.894 C 141.961,135.343 142.081,134.915 142.179,134.578 L 144.119,127.875 C 144.343,127.092 144.619,126.273 144.92,125.42 L 142.874,125.42 C 142.816,125.65 142.774,125.883 142.722,126.096 C 142.537,126.844 142.341,127.518 142.148,128.176 L 140.122,135.289 L 138.888,125.42 L 135.602,125.42 C 134.078,130.861 132.956,134.791 132.11,137.193 L 134.156,137.193 C 134.439,136.107 134.758,134.88 135.151,133.529 L 136.961,127.234 L 137.773,133.92 C 137.904,135.076 138.044,136.143 138.068,137.193 L 138.068,137.193 z M 150.119,127.305 C 150.422,127.287 150.721,127.287 151.034,127.287 C 151.706,127.287 152.37,127.322 153.039,127.394 L 153.617,125.419 L 145.746,125.419 L 145.153,127.394 C 145.918,127.322 146.658,127.287 147.345,127.287 C 147.583,127.287 147.823,127.287 148.057,127.305 C 147.166,130.666 146.155,133.975 145.031,137.194 L 147.361,137.194 C 147.429,136.856 147.517,136.501 147.61,136.126 C 147.795,135.38 148.02,134.526 148.298,133.583 L 150.119,127.305 L 150.119,127.305 z M 156.839,125.42 L 154.524,125.42 C 153.19,130.578 152.024,134.508 151.091,137.193 L 153.436,137.193 C 153.588,136.517 153.734,135.929 153.848,135.466 C 153.936,135.111 154.006,134.827 154.082,134.577 L 156.038,127.874 C 156.262,127.092 156.538,126.273 156.839,125.42 L 156.839,125.42 z M 155.176,137.193 L 162.525,137.193 L 163.175,134.863 C 162.054,134.988 160.786,135.041 159.367,135.041 C 158.845,135.041 158.386,135.023 157.971,135.006 L 158.033,134.756 C 158.161,134.24 158.309,133.76 158.453,133.299 L 158.832,132.07 L 162.103,132.07 C 162.566,132.07 163.044,132.07 163.509,132.125 L 164.117,129.9 C 163.562,129.972 163.01,129.972 162.442,129.972 L 159.424,129.972 L 159.75,128.833 C 159.921,128.265 160.061,127.819 160.215,127.499 L 163.59,127.499 C 163.814,127.499 164.407,127.517 165.334,127.571 L 165.94,125.419 L 158.592,125.419 C 157.313,130.363 156.161,134.295 155.176,137.193 L 155.176,137.193 z M 163.808,137.193 L 166.123,137.193 C 166.69,135.076 167,133.884 167.086,133.599 L 168.364,129.029 C 168.529,128.425 168.724,127.875 168.942,127.359 C 169.414,127.322 169.851,127.304 170.224,127.304 C 171.613,127.304 172.158,127.517 171.868,128.691 C 171.569,129.9 170.683,130.523 169.205,130.523 C 168.922,130.523 168.642,130.505 168.356,130.453 L 169.094,137.193 L 171.439,137.193 C 171.147,135.414 170.921,133.672 170.731,131.964 C 172.447,131.306 173.524,130.15 173.919,128.55 C 174.266,127.144 174.034,126.148 173.393,125.722 C 172.971,125.437 172.377,125.419 171.631,125.419 L 167.225,125.419 C 165.9,130.541 164.734,134.473 163.808,137.193 L 163.808,137.193 z M 172.612,137.193 L 179.961,137.193 L 180.611,134.863 C 179.49,134.988 178.222,135.041 176.803,135.041 C 176.281,135.041 175.822,135.023 175.407,135.006 L 175.469,134.756 C 175.597,134.24 175.745,133.76 175.89,133.299 L 176.268,132.07 L 179.539,132.07 C 180.002,132.07 180.48,132.07 180.945,132.125 L 181.553,129.9 C 180.998,129.972 180.446,129.972 179.878,129.972 L 176.861,129.972 L 177.186,128.833 C 177.357,128.265 177.497,127.819 177.651,127.499 L 181.026,127.499 C 181.25,127.499 181.843,127.517 182.771,127.571 L 183.377,125.419 L 176.028,125.419 C 174.749,130.363 173.598,134.295 172.612,137.193 L 172.612,137.193 z M 184.261,131.094 L 185.925,133.244 C 186.206,133.619 186.303,134.01 186.224,134.33 C 186.048,135.041 185.351,135.504 184.336,135.504 C 183.634,135.504 182.708,135.201 181.66,134.543 L 181.217,136.818 C 181.712,137.173 182.702,137.459 184.001,137.459 C 186.227,137.459 187.843,136.18 188.295,134.348 C 188.572,133.227 188.279,132.356 187.511,131.36 L 185.696,128.977 C 185.54,128.764 185.501,128.497 185.571,128.213 C 185.751,127.483 186.433,127.02 187.523,127.02 C 188.15,127.02 188.785,127.235 189.522,127.573 L 189.921,125.473 C 189.084,125.295 188.289,125.19 187.512,125.19 C 185.332,125.19 183.949,126.256 183.5,128.071 C 183.201,129.279 183.48,130.08 184.261,131.094 L 184.261,131.094 z "
     id="path9"
     style="fill:none;stroke:#ffffff;stroke-width:0.21600001;stroke-miterlimit:2.61310005" /><path
     clip-rule="evenodd"
     d="M 69.031,137.193 L 71.302,137.193 C 71.642,136.48 71.951,135.894 72.264,135.414 L 74.081,132.533 L 77.516,132.533 L 77.708,135.804 C 77.726,136.036 77.686,136.499 77.619,137.193 L 80.009,137.193 L 79.469,127.412 C 79.433,126.771 79.436,126.096 79.453,125.42 L 76.466,125.42 C 76.158,126.061 75.89,126.541 75.676,126.861 L 69.031,137.193 L 69.031,137.193 z M 77.371,127.02 L 77.539,130.631 L 75.164,130.631 L 77.371,127.02 L 77.371,127.02 z M 84.396,120.721 L 88.692,112.489 C 88.544,113.151 88.399,113.745 88.267,114.282 L 88.024,115.268 L 86.715,120.11 C 86.564,120.667 86.366,121.348 86.078,122.155 L 88.158,122.155 C 88.313,121.403 88.457,120.757 88.58,120.255 C 88.651,119.968 88.727,119.716 88.775,119.521 L 90.635,112.74 C 90.764,112.275 90.978,111.467 91.328,110.283 L 88.051,110.283 C 87.761,110.912 87.504,111.414 87.302,111.808 L 83.152,119.628 L 83.614,111.466 C 83.626,111.359 83.648,110.964 83.71,110.282 L 80.283,110.282 C 78.792,115.501 77.519,119.466 76.514,122.155 L 78.564,122.155 C 78.953,120.757 79.257,119.698 79.478,118.981 L 81.632,112.219 L 81.166,120.883 C 81.148,121.258 81.103,121.69 81.048,122.154 L 83.682,122.154 C 83.912,121.652 84.146,121.188 84.396,120.721 L 84.396,120.721 z M 89.796,122.154 L 97.158,122.154 L 97.81,119.804 C 96.686,119.931 95.416,119.984 93.995,119.984 C 93.471,119.984 93.012,119.966 92.597,119.949 L 92.659,119.697 C 92.787,119.177 92.936,118.693 93.08,118.226 L 93.459,116.99 L 96.736,116.99 C 97.2,116.99 97.679,116.99 98.145,117.043 L 98.755,114.801 C 98.198,114.873 97.645,114.873 97.076,114.873 L 94.054,114.873 L 94.381,113.725 C 94.552,113.151 94.692,112.704 94.846,112.381 L 98.228,112.381 C 98.453,112.381 99.046,112.399 99.977,112.451 L 100.584,110.281 L 93.22,110.281 C 91.936,115.268 90.783,119.232 89.796,122.154 L 89.796,122.154 z M 98.459,122.154 L 103.009,122.154 C 106.227,122.154 108.805,119.697 109.775,115.752 C 110.295,113.635 110.088,112.039 109.269,111.107 C 108.58,110.318 107.631,110.281 106.374,110.281 L 101.884,110.281 C 100.556,115.447 99.388,119.41 98.459,122.154 L 98.459,122.154 z M 101.365,120.074 L 101.532,119.392 C 101.686,118.765 101.846,118.173 102.011,117.564 L 103.483,112.363 L 105.308,112.363 C 106.311,112.363 106.999,112.363 107.38,112.883 C 107.793,113.457 107.846,114.461 107.502,115.86 C 107.118,117.421 106.379,118.604 105.356,119.358 C 104.391,120.057 103.534,120.075 102.425,120.075 L 101.365,120.075 L 101.365,120.074 z M 109.343,122.154 L 116.706,122.154 L 117.357,119.804 C 116.234,119.931 114.963,119.984 113.543,119.984 C 113.019,119.984 112.56,119.966 112.145,119.949 L 112.207,119.697 C 112.335,119.177 112.484,118.693 112.628,118.226 L 113.007,116.99 L 116.284,116.99 C 116.748,116.99 117.227,116.99 117.692,117.043 L 118.302,114.801 C 117.746,114.873 117.193,114.873 116.623,114.873 L 113.601,114.873 L 113.928,113.725 C 114.099,113.151 114.239,112.704 114.393,112.381 L 117.775,112.381 C 118,112.381 118.593,112.399 119.523,112.451 L 120.13,110.281 L 112.768,110.281 C 111.483,115.268 110.33,119.232 109.343,122.154 L 109.343,122.154 z M 128.823,112.541 L 129.288,110.281 C 128.33,110.101 127.544,110.013 126.93,110.013 C 123.009,110.013 120.366,112.308 119.339,116.488 C 118.393,120.343 119.752,122.424 123.359,122.424 C 124.227,122.424 125.126,122.299 126.044,122.154 L 126.872,119.697 C 125.903,119.984 125.03,120.129 124.252,120.129 C 121.843,120.129 120.891,118.766 121.521,116.201 C 122.173,113.545 123.883,112.004 126.188,112.004 C 127.234,112.004 128.109,112.219 128.823,112.541 L 128.823,112.541 z M 133.296,110.281 L 130.976,110.281 C 129.639,115.482 128.471,119.447 127.537,122.154 L 129.887,122.154 C 130.04,121.474 130.185,120.883 130.3,120.416 C 130.388,120.057 130.458,119.77 130.534,119.52 L 132.494,112.758 C 132.717,111.969 132.994,111.143 133.296,110.281 L 133.296,110.281 z M 137.616,122.154 L 141.072,122.154 C 141.191,121.67 141.287,121.222 141.379,120.845 C 141.516,120.288 141.637,119.859 141.735,119.519 L 143.679,112.757 C 143.903,111.968 144.18,111.142 144.482,110.28 L 142.431,110.28 C 142.374,110.514 142.331,110.747 142.279,110.962 C 142.094,111.716 141.897,112.398 141.704,113.062 L 139.673,120.236 L 138.437,110.281 L 135.144,110.281 C 133.618,115.769 132.495,119.734 131.645,122.154 L 133.696,122.154 C 133.979,121.06 134.298,119.824 134.693,118.461 L 136.506,112.111 L 137.319,118.855 C 137.451,120.021 137.591,121.098 137.616,122.154 L 137.616,122.154 z M 145.789,116.004 L 147.456,118.174 C 147.737,118.551 147.835,118.945 147.756,119.268 C 147.58,119.985 146.882,120.452 145.864,120.452 C 145.161,120.452 144.233,120.147 143.183,119.483 L 142.74,121.78 C 143.235,122.137 144.227,122.425 145.529,122.425 C 147.758,122.425 149.378,121.134 149.832,119.286 C 150.109,118.157 149.816,117.278 149.046,116.272 L 147.226,113.87 C 147.07,113.655 147.032,113.386 147.102,113.099 C 147.282,112.365 147.965,111.898 149.058,111.898 C 149.686,111.898 150.322,112.113 151.061,112.453 L 151.461,110.338 C 150.622,110.158 149.825,110.051 149.047,110.051 C 146.862,110.051 145.476,111.127 145.026,112.955 C 144.727,114.174 145.008,114.98 145.789,116.004 L 145.789,116.004 z M 66.045,131.094 L 67.709,133.244 C 67.99,133.619 68.087,134.01 68.008,134.33 C 67.832,135.041 67.135,135.504 66.12,135.504 C 65.418,135.504 64.492,135.201 63.445,134.543 L 63.002,136.818 C 63.497,137.173 64.487,137.459 65.786,137.459 C 68.011,137.459 69.627,136.18 70.08,134.348 C 70.357,133.227 70.064,132.356 69.295,131.36 L 67.48,128.977 C 67.324,128.764 67.285,128.497 67.355,128.213 C 67.535,127.483 68.217,127.02 69.307,127.02 C 69.934,127.02 70.569,127.235 71.307,127.573 L 71.706,125.473 C 70.869,125.295 70.073,125.19 69.297,125.19 C 67.116,125.19 65.733,126.256 65.284,128.071 C 64.986,129.279 65.266,130.08 66.045,131.094 L 66.045,131.094 z M 86.259,137.193 L 89.709,137.193 C 89.828,136.713 89.923,136.267 90.015,135.894 C 90.152,135.343 90.272,134.915 90.37,134.578 L 92.311,127.875 C 92.534,127.092 92.811,126.273 93.112,125.42 L 91.066,125.42 C 91.009,125.65 90.967,125.883 90.914,126.096 C 90.729,126.844 90.532,127.518 90.34,128.176 L 88.313,135.289 L 87.078,125.42 L 83.792,125.42 C 82.268,130.861 81.147,134.791 80.3,137.193 L 82.346,137.193 C 82.629,136.107 82.947,134.88 83.341,133.529 L 85.151,127.234 L 85.963,133.92 C 86.095,135.076 86.234,136.143 86.259,137.193 L 86.259,137.193 z M 94.416,131.094 L 96.08,133.244 C 96.361,133.619 96.458,134.01 96.379,134.33 C 96.203,135.041 95.506,135.504 94.491,135.504 C 93.789,135.504 92.864,135.201 91.816,134.543 L 91.373,136.818 C 91.868,137.173 92.857,137.459 94.157,137.459 C 96.382,137.459 97.998,136.18 98.45,134.348 C 98.727,133.227 98.434,132.356 97.665,131.36 L 95.85,128.977 C 95.694,128.764 95.655,128.497 95.725,128.213 C 95.905,127.483 96.587,127.02 97.677,127.02 C 98.304,127.02 98.939,127.235 99.676,127.573 L 100.075,125.473 C 99.238,125.295 98.443,125.19 97.666,125.19 C 95.486,125.19 94.102,126.256 93.653,128.071 C 93.356,129.279 93.636,130.08 94.416,131.094 L 94.416,131.094 z M 103.08,137.193 L 105.336,137.193 C 105.431,136.748 105.536,136.32 105.642,135.894 C 105.871,134.968 106.112,134.115 106.359,133.298 L 106.737,132.069 L 109.425,132.069 C 109.888,132.069 110.351,132.069 110.816,132.124 L 111.44,129.899 C 110.963,129.954 110.407,129.971 109.764,129.971 L 107.33,129.971 L 107.656,128.832 C 107.826,128.264 107.966,127.818 108.12,127.498 L 110.898,127.498 C 111.122,127.498 111.714,127.516 112.642,127.57 L 113.264,125.418 L 106.497,125.418 C 105.217,130.363 104.065,134.295 103.08,137.193 L 103.08,137.193 z M 110.979,137.193 L 113.294,137.193 C 113.862,135.076 114.172,133.884 114.257,133.599 L 115.536,129.029 C 115.7,128.425 115.896,127.875 116.113,127.359 C 116.585,127.322 117.022,127.304 117.395,127.304 C 118.785,127.304 119.329,127.517 119.039,128.691 C 118.74,129.9 117.855,130.523 116.376,130.523 C 116.093,130.523 115.813,130.505 115.527,130.453 L 116.266,137.193 L 118.611,137.193 C 118.319,135.414 118.092,133.672 117.902,131.964 C 119.618,131.306 120.695,130.15 121.09,128.55 C 121.438,127.144 121.206,126.148 120.565,125.722 C 120.142,125.437 119.549,125.419 118.802,125.419 L 114.396,125.419 C 113.072,130.541 111.906,134.473 110.979,137.193 L 110.979,137.193 z M 125.279,137.441 C 128.774,137.441 131.497,135.005 132.468,131.074 C 133.4,127.304 131.941,125.172 128.312,125.172 C 124.817,125.172 122.094,127.608 121.118,131.555 C 120.191,135.309 121.665,137.441 125.279,137.441 L 125.279,137.441 z M 123.363,131.537 C 124.049,128.764 125.633,127.252 127.813,127.252 C 129.993,127.252 130.824,128.604 130.209,131.094 C 129.519,133.885 127.925,135.379 125.685,135.379 C 123.623,135.379 122.761,133.975 123.363,131.537 L 123.363,131.537 z M 138.068,137.193 L 141.518,137.193 C 141.636,136.713 141.731,136.267 141.824,135.894 C 141.961,135.343 142.081,134.915 142.179,134.578 L 144.119,127.875 C 144.343,127.092 144.619,126.273 144.92,125.42 L 142.874,125.42 C 142.816,125.65 142.774,125.883 142.722,126.096 C 142.537,126.844 142.341,127.518 142.148,128.176 L 140.122,135.289 L 138.888,125.42 L 135.602,125.42 C 134.078,130.861 132.956,134.791 132.11,137.193 L 134.156,137.193 C 134.439,136.107 134.758,134.88 135.151,133.529 L 136.961,127.234 L 137.773,133.92 C 137.904,135.076 138.044,136.143 138.068,137.193 L 138.068,137.193 z M 150.119,127.305 C 150.422,127.287 150.721,127.287 151.034,127.287 C 151.706,127.287 152.37,127.322 153.039,127.394 L 153.617,125.419 L 145.746,125.419 L 145.153,127.394 C 145.918,127.322 146.658,127.287 147.345,127.287 C 147.583,127.287 147.823,127.287 148.057,127.305 C 147.166,130.666 146.155,133.975 145.031,137.194 L 147.361,137.194 C 147.429,136.856 147.517,136.501 147.61,136.126 C 147.795,135.38 148.02,134.526 148.298,133.583 L 150.119,127.305 L 150.119,127.305 z M 156.839,125.42 L 154.524,125.42 C 153.19,130.578 152.024,134.508 151.091,137.193 L 153.436,137.193 C 153.588,136.517 153.734,135.929 153.848,135.466 C 153.936,135.111 154.006,134.827 154.082,134.577 L 156.038,127.874 C 156.262,127.092 156.538,126.273 156.839,125.42 L 156.839,125.42 z M 155.176,137.193 L 162.525,137.193 L 163.175,134.863 C 162.054,134.988 160.786,135.041 159.367,135.041 C 158.845,135.041 158.386,135.023 157.971,135.006 L 158.033,134.756 C 158.161,134.24 158.309,133.76 158.453,133.299 L 158.832,132.07 L 162.103,132.07 C 162.566,132.07 163.044,132.07 163.509,132.125 L 164.117,129.9 C 163.562,129.972 163.01,129.972 162.442,129.972 L 159.424,129.972 L 159.75,128.833 C 159.921,128.265 160.061,127.819 160.215,127.499 L 163.59,127.499 C 163.814,127.499 164.407,127.517 165.334,127.571 L 165.94,125.419 L 158.592,125.419 C 157.313,130.363 156.161,134.295 155.176,137.193 L 155.176,137.193 z M 163.808,137.193 L 166.123,137.193 C 166.69,135.076 167,133.884 167.086,133.599 L 168.364,129.029 C 168.529,128.425 168.724,127.875 168.942,127.359 C 169.414,127.322 169.851,127.304 170.224,127.304 C 171.613,127.304 172.158,127.517 171.868,128.691 C 171.569,129.9 170.683,130.523 169.205,130.523 C 168.922,130.523 168.642,130.505 168.356,130.453 L 169.094,137.193 L 171.439,137.193 C 171.147,135.414 170.921,133.672 170.731,131.964 C 172.447,131.306 173.524,130.15 173.919,128.55 C 174.266,127.144 174.034,126.148 173.393,125.722 C 172.971,125.437 172.377,125.419 171.631,125.419 L 167.225,125.419 C 165.9,130.541 164.734,134.473 163.808,137.193 L 163.808,137.193 z M 172.612,137.193 L 179.961,137.193 L 180.611,134.863 C 179.49,134.988 178.222,135.041 176.803,135.041 C 176.281,135.041 175.822,135.023 175.407,135.006 L 175.469,134.756 C 175.597,134.24 175.745,133.76 175.89,133.299 L 176.268,132.07 L 179.539,132.07 C 180.002,132.07 180.48,132.07 180.945,132.125 L 181.553,129.9 C 180.998,129.972 180.446,129.972 179.878,129.972 L 176.861,129.972 L 177.186,128.833 C 177.357,128.265 177.497,127.819 177.651,127.499 L 181.026,127.499 C 181.25,127.499 181.843,127.517 182.771,127.571 L 183.377,125.419 L 176.028,125.419 C 174.749,130.363 173.598,134.295 172.612,137.193 L 172.612,137.193 z M 184.261,131.094 L 185.925,133.244 C 186.206,133.619 186.303,134.01 186.224,134.33 C 186.048,135.041 185.351,135.504 184.336,135.504 C 183.634,135.504 182.708,135.201 181.66,134.543 L 181.217,136.818 C 181.712,137.173 182.702,137.459 184.001,137.459 C 186.227,137.459 187.843,136.18 188.295,134.348 C 188.572,133.227 188.279,132.356 187.511,131.36 L 185.696,128.977 C 185.54,128.764 185.501,128.497 185.571,128.213 C 185.751,127.483 186.433,127.02 187.523,127.02 C 188.15,127.02 188.785,127.235 189.522,127.573 L 189.921,125.473 C 189.084,125.295 188.289,125.19 187.512,125.19 C 185.332,125.19 183.949,126.256 183.5,128.071 C 183.201,129.279 183.48,130.08 184.261,131.094 L 184.261,131.094 z "
     id="path11"
     style="fill-rule:evenodd" /></g></svg>